<svg xmlns="https://www.w3.org/2000/svg" xmlns:xlink="https://www.w3.org/1999/xlink" width="18" height="18" viewBox="0 0 18 18"><defs><path id="8srz5wswoa" d="M15 13.688c.31 0 .563.251.563.562 0 .31-.252.563-.563.563H3c-.31 0-.563-.252-.563-.563 0-.31.252-.563.563-.563zm0-5.25c.31 0 .563.251.563.562 0 .31-.252.563-.563.563H3c-.31 0-.563-.252-.563-.563 0-.31.252-.563.563-.563zm0-5.25c.31 0 .563.251.563.562 0 .31-.252.563-.563.563H3c-.31 0-.563-.252-.563-.563 0-.31.252-.563.563-.563z"></path></defs><g fill="none" fill-rule="evenodd" transform="translate(-337 -19) translate(337 19)"><mask id="28iwa9h2ub" fill="#fff"><use xlink:href="#8srz5wswoa"></use></mask><use fill="#333" fill-rule="nonzero" stroke="#333" stroke-width=".3" xlink:href="#8srz5wswoa"></use><g fill="#333" mask="url(#28iwa9h2ub)"><path d="M0 0H18V18H0z"></path></g></g></svg>