<svg xmlns="http://www.w3.org/2000/svg" width="83" height="20" viewBox="0 0 83 20">
  <defs>
    <path id="ecywbc6zoa" d="M0 0.192L20.007 0.192 20.007 12.398 0 12.398z"></path>
    <path id="fvuvnp7moc" d="M0.569 0.276L13.113 0.276 13.113 18.135 0.569 18.135z"></path>
  </defs>
  <g fill="none" fill-rule="evenodd">
    <path fill="#000" d="M52.032 1.542l-3.231 1.35v2.734h-2.248v2.928h2.207v5.68c0 2.358 1.487 3.899 3.867 3.899.967 0 1.562-.174 1.86-.298V14.98c-.174.05-.62.1-1.017.1-.942 0-1.438-.348-1.438-1.415v-5.11h2.455V5.626h-2.455V1.542z" transform="translate(-245 -281) translate(245.55 281.63)"></path>
    <g transform="translate(-245 -281) translate(245.55 281.63) translate(0 5.44)">
      <mask id="vem0rb6h0b" fill="#fff">
        <use xlink:href="#ecywbc6zoa"></use>
      </mask>
      <path fill="#000" d="M16.537 0.192L14.28 8.032 11.628 0.192 8.379 0.192 5.727 8.032 3.471 0.192 -0.001 0.192 3.892 12.398 7.382 12.398 10.004 4.173 12.637 12.398 16.115 12.398 20.007 0.192z" mask="url(#vem0rb6h0b)"></path>
    </g>
    <g transform="translate(-245 -281) translate(245.55 281.63) translate(67.961)">
      <mask id="pusm6s907d" fill="#fff">
        <use xlink:href="#fvuvnp7moc"></use>
      </mask>
      <path fill="#000" d="M6.857 15.178c-1.77 0-3.213-1.29-3.213-3.473 0-2.184 1.494-3.424 3.213-3.424 1.718 0 3.058 1.215 3.058 3.4 0 2.206-1.34 3.497-3.058 3.497zM9.865 1.542v4.793c-.785-.543-1.732-.89-2.813-.978l-.184-.014-.085-.006c-.09-.003-.182-.007-.273-.007-.182 0-.363.01-.54.027-2.874.232-4.796 2.297-5.28 5.005-.072.399-.11.811-.118 1.234 0 .04-.003.081-.003.122V11.736c0 .105.002.21.007.313v.01c.008.178.021.355.04.53.337 3.13 2.533 5.546 5.894 5.546 1.346 0 2.503-.387 3.43-1.051v.749h.124l3.049.028V.276L9.865 1.542z" mask="url(#pusm6s907d)"></path>
    </g>
    <path fill="#000" d="M58.762 10.313c.413-1.2 1.39-2.04 2.746-2.04s2.332.84 2.747 2.04h-5.493zm8.564.034c-.518-2.867-2.651-5.011-5.818-5.011s-5.3 2.144-5.818 5.011l-.002.015c-.08.442-.12.901-.12 1.373v.002c0 .288.015.572.045.85v.002c.337 3.13 2.533 5.546 5.895 5.546 2.688 0 4.63-1.545 5.472-3.764l-2.92-.623c-.486 1.046-1.376 1.74-2.552 1.74-1.57 0-2.63-1.239-2.9-2.9h8.795c.03-.28.046-.563.046-.851v-.002c0-.472-.041-.93-.12-1.373l-.003-.015zM26.283 15.18c-1.77 0-3.213-1.29-3.213-3.473s1.494-3.424 3.213-3.424c1.718 0 3.058 1.215 3.058 3.4 0 2.207-1.34 3.497-3.058 3.497zm3.07-8.736c-.418-.307-.945-.558-1.43-.743-.43-.181-.967-.314-1.63-.356l-.084-.005c-.09-.004-.181-.007-.273-.007-3.278 0-5.935 2.859-5.941 6.388 0 .077.002.153.004.23.002.036.001.071.003.106l.003.036c.171 3.337 2.717 5.992 5.85 6.037.028 0 .056.003.085.003.066 0 .132-.004.198-.006.035-.002.071 0 .106-.003l.033-.003c1.142-.07 2.197-.487 3.076-1.154v.866h3.186V5.626h-3.186v.818zM41.198 5.304c-1.286 0-2.714.548-3.47 1.759V5.626h-3.25v12.206h3.299v-7.02c0-1.415.843-2.531 2.28-2.531 1.587 0 2.256 1.066 2.256 2.43v7.121h3.298v-7.69c0-2.68-1.389-4.838-4.413-4.838" transform="translate(-245 -281) translate(245.55 281.63)"></path>
  </g>
</svg>